<svg width="476" height="423" viewBox="0 0 476 423" fill="none" xmlns="http://www.w3.org/2000/svg">
<g id="Frame 4104">
<path id="N" d="M455.965 11V1.69434H457.793L461.602 7.90869V1.69434H463.347V11H461.462L457.71 4.93164V11H455.965Z" fill="#C7C7CC"/>
<path id="Vector 114" d="M0 0H198.761L221.635 29.5881V212.596H441.144L476 247.663V423H65.3547L0 327.661V0Z" fill="#E5E5EA"/>
<path id="Vector 111" d="M221.701 245.986V30.8773H41.8447V385.077H65.7417H66.7417V386.077V422H475V246.986H222.701H221.701V245.986Z" fill="white" stroke="#C7C7CC" stroke-width="2"/>
<rect id="Rectangle 1454" x="48.1289" y="37.1672" width="67.1221" height="46.7472" rx="3" fill="#FFF3D6" stroke="#FCD217" stroke-width="2"/>
<rect id="Rectangle 1475" x="48.1289" y="139.38" width="67.1221" height="46.7472" rx="3" fill="#FFF3D6" stroke="#FCD217" stroke-width="2"/>
<rect id="Rectangle 1481" x="48.1289" y="288.766" width="67.1221" height="42.0298" rx="3" fill="#FFF3D6" stroke="#FCD217" stroke-width="2"/>
<rect id="Rectangle 1459" x="310.479" y="359.528" width="45.1287" height="56.1822" rx="3" fill="#D6F2D7" stroke="#00850D" stroke-width="2"/>
<rect id="Rectangle 1489" x="420.445" y="359.528" width="46.6997" height="56.1822" rx="3" fill="#D6F2D7" stroke="#00850D" stroke-width="2"/>
<path id="Rectangle 1458" d="M48.1289 343.657C48.1289 342.001 49.4721 340.657 51.1289 340.657H110.68C112.337 340.657 113.68 342.001 113.68 343.657V412.709C113.68 414.366 112.337 415.709 110.68 415.709H74.7718C73.115 415.709 71.7718 414.366 71.7718 412.709V384.176C71.7718 381.415 69.5332 379.176 66.7718 379.176H51.1289C49.4721 379.176 48.1289 377.833 48.1289 376.176V343.657Z" fill="#E9EBFF" stroke="#4E53D1" stroke-width="2"/>
<rect id="Rectangle 1455" x="145.528" y="37.1672" width="68.6931" height="46.7472" rx="3" fill="#FFF3D6" stroke="#FCD217" stroke-width="2"/>
<rect id="Rectangle 1476" x="145.528" y="139.38" width="68.6931" height="46.7472" rx="3" fill="#FFF3D6" stroke="#FCD217" stroke-width="2"/>
<rect id="Rectangle 1482" x="145.528" y="288.766" width="68.6931" height="42.0298" rx="3" fill="#FFF3D6" stroke="#FCD217" stroke-width="2"/>
<rect id="Rectangle 1484" x="227.218" y="257.316" width="70.264" height="73.4796" rx="3" fill="#FFF3D6" stroke="#FCD217" stroke-width="2"/>
<rect id="Rectangle 1486" x="365.462" y="257.316" width="46.6997" height="73.4796" rx="3" fill="#FFF3D6" stroke="#FCD217" stroke-width="2"/>
<rect id="Rectangle 1483" x="145.528" y="359.528" width="68.6931" height="56.1822" rx="3" fill="#FFF3D6" stroke="#FCD217" stroke-width="2"/>
<rect id="Rectangle 1485" x="227.218" y="359.528" width="70.264" height="56.1822" rx="3" fill="#FFF3D6" stroke="#FCD217" stroke-width="2"/>
<rect id="Rectangle 1487" x="365.462" y="359.528" width="46.6997" height="56.1822" rx="3" fill="#FFF3D6" stroke="#FCD217" stroke-width="2"/>
<rect id="Rectangle 1456" x="145.528" y="90.6311" width="68.6931" height="42.0297" rx="3" fill="#D6F2D7" stroke="#01850E" stroke-width="2"/>
<rect id="Rectangle 1477" x="145.528" y="191.272" width="68.6931" height="43.6023" rx="3" fill="#D6F2D7" stroke="#01850E" stroke-width="2"/>
<rect id="Rectangle 1479" x="145.528" y="243.164" width="68.6931" height="38.8848" rx="3" fill="#D6F2D7" stroke="#01850E" stroke-width="2"/>
<rect id="Rectangle 1488" x="310.479" y="257.316" width="45.1287" height="73.4796" rx="3" fill="#D6F2D7" stroke="#01850E" stroke-width="2"/>
<rect id="Rectangle 1490" x="420.445" y="257.316" width="46.6997" height="73.4796" rx="3" fill="#D6F2D7" stroke="#01850E" stroke-width="2"/>
<rect id="Rectangle 1473" x="48.1289" y="90.6311" width="67.1221" height="42.0297" rx="3" fill="#D6F2D7" stroke="#01850E" stroke-width="2"/>
<rect id="Rectangle 1478" x="48.1289" y="191.272" width="67.1221" height="43.6023" rx="3" fill="#D6F2D7" stroke="#01850E" stroke-width="2"/>
<rect id="Rectangle 1480" x="48.1289" y="243.164" width="67.1221" height="38.8848" rx="3" fill="#D6F2D7" stroke="#01850E" stroke-width="2"/>
<path id="L&#225;&#187;&#145;i v&#195;&#160;o s&#225;&#186;&#163;nh ch&#195;&#173;nh" d="M246.557 189.256V174.94H248.451V187.567H255.502V189.256H246.557ZM256.889 184.071C256.889 182.15 257.423 180.728 258.49 179.803C259.382 179.035 260.47 178.651 261.752 178.651C263.178 178.651 264.343 179.12 265.248 180.057C266.153 180.988 266.606 182.277 266.606 183.924C266.606 185.259 266.404 186.311 266 187.079C265.603 187.84 265.02 188.433 264.252 188.856C263.49 189.279 262.657 189.491 261.752 189.491C260.3 189.491 259.125 189.025 258.227 188.094C257.335 187.163 256.889 185.822 256.889 184.071ZM258.696 184.071C258.696 185.399 258.985 186.395 259.565 187.059C260.144 187.717 260.873 188.046 261.752 188.046C262.625 188.046 263.351 187.714 263.93 187.049C264.509 186.385 264.799 185.373 264.799 184.012C264.799 182.73 264.506 181.76 263.92 181.102C263.341 180.438 262.618 180.106 261.752 180.106C260.873 180.106 260.144 180.435 259.565 181.092C258.985 181.75 258.696 182.743 258.696 184.071ZM261.772 175.936L260.668 177.596H258.656L260.766 174.862H262.641L264.838 177.596H262.846L261.772 175.936ZM262.084 171.415H264.438L262.182 174.149H260.766L262.084 171.415ZM268.686 176.962V174.94H270.444V176.962H268.686ZM268.686 189.256V178.885H270.444V189.256H268.686ZM281.576 189.256L277.631 178.885H279.487L281.713 185.096C281.954 185.767 282.175 186.464 282.377 187.186C282.533 186.639 282.752 185.982 283.031 185.214L285.336 178.885H287.143L283.217 189.256H281.576ZM295.463 187.977C294.812 188.531 294.184 188.921 293.578 189.149C292.979 189.377 292.335 189.491 291.645 189.491C290.505 189.491 289.63 189.214 289.018 188.661C288.406 188.101 288.1 187.388 288.1 186.522C288.1 186.014 288.214 185.552 288.442 185.135C288.676 184.712 288.979 184.374 289.35 184.12C289.727 183.866 290.151 183.674 290.619 183.544C290.964 183.452 291.485 183.365 292.182 183.28C293.601 183.111 294.646 182.909 295.317 182.674C295.323 182.434 295.326 182.281 295.326 182.215C295.326 181.499 295.16 180.995 294.828 180.702C294.379 180.305 293.712 180.106 292.826 180.106C292 180.106 291.388 180.253 290.99 180.546C290.6 180.832 290.31 181.343 290.121 182.079L288.403 181.844C288.559 181.109 288.816 180.516 289.174 180.067C289.532 179.611 290.05 179.263 290.727 179.022C291.404 178.775 292.188 178.651 293.08 178.651C293.966 178.651 294.685 178.755 295.239 178.964C295.792 179.172 296.199 179.436 296.459 179.755C296.72 180.067 296.902 180.464 297.006 180.946C297.065 181.245 297.094 181.786 297.094 182.567V184.911C297.094 186.545 297.13 187.58 297.201 188.016C297.28 188.446 297.429 188.859 297.651 189.256H295.815C295.632 188.892 295.515 188.465 295.463 187.977ZM295.317 184.051C294.679 184.312 293.722 184.533 292.446 184.715C291.723 184.82 291.212 184.937 290.912 185.067C290.613 185.197 290.382 185.389 290.219 185.643C290.056 185.891 289.975 186.167 289.975 186.473C289.975 186.942 290.151 187.333 290.502 187.645C290.86 187.958 291.381 188.114 292.065 188.114C292.742 188.114 293.344 187.967 293.871 187.674C294.399 187.375 294.786 186.968 295.033 186.454C295.222 186.057 295.317 185.471 295.317 184.696V184.051ZM294.36 177.596H292.944L290.688 174.862H293.041L294.36 177.596ZM299.174 184.071C299.174 182.15 299.708 180.728 300.776 179.803C301.668 179.035 302.755 178.651 304.037 178.651C305.463 178.651 306.628 179.12 307.533 180.057C308.438 180.988 308.891 182.277 308.891 183.924C308.891 185.259 308.689 186.311 308.285 187.079C307.888 187.84 307.306 188.433 306.537 188.856C305.776 189.279 304.942 189.491 304.037 189.491C302.586 189.491 301.41 189.025 300.512 188.094C299.62 187.163 299.174 185.822 299.174 184.071ZM300.981 184.071C300.981 185.399 301.27 186.395 301.85 187.059C302.429 187.717 303.158 188.046 304.037 188.046C304.91 188.046 305.636 187.714 306.215 187.049C306.795 186.385 307.084 185.373 307.084 184.012C307.084 182.73 306.791 181.76 306.205 181.102C305.626 180.438 304.903 180.106 304.037 180.106C303.158 180.106 302.429 180.435 301.85 181.092C301.27 181.75 300.981 182.743 300.981 184.071ZM315.824 186.161L317.563 185.887C317.66 186.584 317.931 187.118 318.373 187.489C318.823 187.86 319.448 188.046 320.248 188.046C321.056 188.046 321.655 187.883 322.045 187.557C322.436 187.225 322.631 186.838 322.631 186.395C322.631 185.998 322.459 185.686 322.114 185.458C321.873 185.301 321.274 185.103 320.317 184.862C319.028 184.536 318.132 184.256 317.631 184.022C317.136 183.781 316.759 183.452 316.498 183.036C316.244 182.613 316.117 182.147 316.117 181.639C316.117 181.177 316.222 180.751 316.43 180.36C316.645 179.963 316.934 179.634 317.299 179.374C317.573 179.172 317.944 179.003 318.412 178.866C318.888 178.723 319.395 178.651 319.936 178.651C320.75 178.651 321.462 178.768 322.074 179.003C322.693 179.237 323.149 179.556 323.442 179.96C323.735 180.357 323.936 180.891 324.047 181.561L322.328 181.796C322.25 181.262 322.022 180.845 321.645 180.546C321.274 180.246 320.746 180.096 320.063 180.096C319.255 180.096 318.679 180.23 318.334 180.497C317.989 180.764 317.817 181.076 317.817 181.434C317.817 181.662 317.888 181.867 318.031 182.049C318.175 182.238 318.399 182.394 318.705 182.518C318.881 182.583 319.399 182.733 320.258 182.967C321.502 183.299 322.367 183.573 322.856 183.788C323.351 183.996 323.738 184.302 324.018 184.706C324.298 185.109 324.438 185.611 324.438 186.21C324.438 186.796 324.265 187.349 323.92 187.87C323.582 188.384 323.09 188.784 322.446 189.071C321.801 189.351 321.072 189.491 320.258 189.491C318.91 189.491 317.882 189.211 317.172 188.651C316.469 188.091 316.02 187.261 315.824 186.161ZM333.295 187.977C332.644 188.531 332.016 188.921 331.41 189.149C330.811 189.377 330.167 189.491 329.477 189.491C328.337 189.491 327.462 189.214 326.85 188.661C326.238 188.101 325.932 187.388 325.932 186.522C325.932 186.014 326.046 185.552 326.274 185.135C326.508 184.712 326.811 184.374 327.182 184.12C327.559 183.866 327.983 183.674 328.451 183.544C328.796 183.452 329.317 183.365 330.014 183.28C331.433 183.111 332.478 182.909 333.149 182.674C333.155 182.434 333.158 182.281 333.158 182.215C333.158 181.499 332.992 180.995 332.66 180.702C332.211 180.305 331.544 180.106 330.658 180.106C329.832 180.106 329.22 180.253 328.823 180.546C328.432 180.832 328.142 181.343 327.953 182.079L326.235 181.844C326.391 181.109 326.648 180.516 327.006 180.067C327.364 179.611 327.882 179.263 328.559 179.022C329.236 178.775 330.02 178.651 330.912 178.651C331.798 178.651 332.517 178.755 333.071 178.964C333.624 179.172 334.031 179.436 334.291 179.755C334.552 180.067 334.734 180.464 334.838 180.946C334.897 181.245 334.926 181.786 334.926 182.567V184.911C334.926 186.545 334.962 187.58 335.033 188.016C335.112 188.446 335.261 188.859 335.483 189.256H333.647C333.464 188.892 333.347 188.465 333.295 187.977ZM333.149 184.051C332.511 184.312 331.554 184.533 330.278 184.715C329.555 184.82 329.044 184.937 328.744 185.067C328.445 185.197 328.214 185.389 328.051 185.643C327.888 185.891 327.807 186.167 327.807 186.473C327.807 186.942 327.983 187.333 328.334 187.645C328.692 187.958 329.213 188.114 329.897 188.114C330.574 188.114 331.176 187.967 331.703 187.674C332.231 187.375 332.618 186.968 332.865 186.454C333.054 186.057 333.149 185.471 333.149 184.696V184.051ZM330.385 176.424C330.756 176.385 330.994 176.35 331.098 176.317C331.443 176.2 331.619 176.018 331.625 175.77C331.632 175.62 331.541 175.493 331.352 175.389C331.078 175.24 330.645 175.165 330.053 175.165C329.851 175.165 329.545 175.178 329.135 175.204L329.028 174.208C329.281 174.156 329.75 174.133 330.434 174.139C331.235 174.146 331.889 174.276 332.397 174.53C332.957 174.803 333.243 175.184 333.256 175.672C333.282 176.48 332.69 176.958 331.479 177.108V177.596H330.385V176.424ZM337.66 189.256V178.885H339.242V180.36C340.004 179.221 341.104 178.651 342.543 178.651C343.168 178.651 343.741 178.765 344.262 178.993C344.789 179.214 345.183 179.507 345.444 179.872C345.704 180.236 345.886 180.669 345.99 181.171C346.056 181.496 346.088 182.066 346.088 182.88V189.256H344.33V182.948C344.33 182.232 344.262 181.698 344.125 181.346C343.989 180.988 343.744 180.705 343.393 180.497C343.048 180.282 342.641 180.174 342.172 180.174C341.423 180.174 340.776 180.412 340.229 180.887C339.688 181.363 339.418 182.264 339.418 183.592V189.256H337.66ZM348.793 189.256V174.94H350.551V180.077C351.371 179.126 352.406 178.651 353.656 178.651C354.425 178.651 355.092 178.804 355.658 179.11C356.225 179.409 356.628 179.826 356.869 180.36C357.117 180.894 357.24 181.669 357.24 182.684V189.256H355.483V182.684C355.483 181.805 355.291 181.167 354.906 180.77C354.529 180.366 353.992 180.165 353.295 180.165C352.774 180.165 352.283 180.301 351.821 180.575C351.365 180.842 351.039 181.206 350.844 181.669C350.649 182.131 350.551 182.769 350.551 183.583V189.256H348.793ZM372.26 185.458L373.989 185.682C373.8 186.874 373.315 187.808 372.533 188.485C371.759 189.156 370.805 189.491 369.672 189.491C368.253 189.491 367.11 189.029 366.244 188.104C365.385 187.173 364.955 185.842 364.955 184.11C364.955 182.99 365.141 182.01 365.512 181.171C365.883 180.331 366.446 179.702 367.201 179.286C367.963 178.863 368.79 178.651 369.682 178.651C370.808 178.651 371.729 178.937 372.446 179.51C373.162 180.077 373.621 180.884 373.823 181.932L372.114 182.196C371.951 181.499 371.661 180.975 371.244 180.624C370.834 180.272 370.336 180.096 369.75 180.096C368.865 180.096 368.145 180.415 367.592 181.053C367.039 181.685 366.762 182.687 366.762 184.061C366.762 185.454 367.029 186.467 367.563 187.098C368.097 187.73 368.793 188.046 369.653 188.046C370.343 188.046 370.919 187.834 371.381 187.411C371.843 186.988 372.136 186.337 372.26 185.458ZM375.492 189.256V174.94H377.25V180.077C378.071 179.126 379.106 178.651 380.356 178.651C381.124 178.651 381.791 178.804 382.358 179.11C382.924 179.409 383.328 179.826 383.569 180.36C383.816 180.894 383.94 181.669 383.94 182.684V189.256H382.182V182.684C382.182 181.805 381.99 181.167 381.606 180.77C381.228 180.366 380.691 180.165 379.994 180.165C379.474 180.165 378.982 180.301 378.52 180.575C378.064 180.842 377.739 181.206 377.543 181.669C377.348 182.131 377.25 182.769 377.25 183.583V189.256H375.492ZM387.24 189.256V178.885H388.998V189.256H387.24ZM387.153 177.596L388.451 174.862H390.756L388.608 177.596H387.153ZM392.192 189.256V178.885H393.774V180.36C394.535 179.221 395.636 178.651 397.074 178.651C397.699 178.651 398.272 178.765 398.793 178.993C399.321 179.214 399.714 179.507 399.975 179.872C400.235 180.236 400.418 180.669 400.522 181.171C400.587 181.496 400.619 182.066 400.619 182.88V189.256H398.862V182.948C398.862 182.232 398.793 181.698 398.656 181.346C398.52 180.988 398.276 180.705 397.924 180.497C397.579 180.282 397.172 180.174 396.703 180.174C395.955 180.174 395.307 180.412 394.76 180.887C394.22 181.363 393.949 182.264 393.949 183.592V189.256H392.192ZM403.324 189.256V174.94H405.082V180.077C405.903 179.126 406.938 178.651 408.188 178.651C408.956 178.651 409.623 178.804 410.19 179.11C410.756 179.409 411.16 179.826 411.401 180.36C411.648 180.894 411.772 181.669 411.772 182.684V189.256H410.014V182.684C410.014 181.805 409.822 181.167 409.438 180.77C409.06 180.366 408.523 180.165 407.826 180.165C407.306 180.165 406.814 180.301 406.352 180.575C405.896 180.842 405.571 181.206 405.375 181.669C405.18 182.131 405.082 182.769 405.082 183.583V189.256H403.324Z" fill="black"/>
<g id="Group">
<path id="Vector" d="M327.734 203.706L322.548 197.772C321.935 197.074 322.433 195.977 323.362 195.977H333.736C333.944 195.977 334.147 196.037 334.322 196.149C334.497 196.262 334.635 196.423 334.721 196.612C334.807 196.802 334.837 197.012 334.806 197.218C334.776 197.424 334.687 197.616 334.55 197.773L329.363 203.705C329.262 203.821 329.136 203.915 328.996 203.979C328.855 204.042 328.703 204.075 328.549 204.075C328.394 204.075 328.242 204.042 328.102 203.979C327.961 203.915 327.836 203.821 327.734 203.705V203.706Z" fill="#2F6BFF"/>
</g>
<g id="Icons/Fill/ic_compass" clip-path="url(#clip0)">
<path id="Vector_2" d="M463.629 35.3814L459.505 23.5877L455.381 35.3814L443.01 39.3126L455.381 43.2438L459.505 55.0375L463.629 43.2438L476 39.3126L463.629 35.3814ZM448.508 39.3126L456.756 36.6918L458.13 39.3126H448.508ZM459.505 49.7959L456.756 41.9334L459.505 40.623V49.7959ZM459.505 28.8293L462.254 36.6918L459.505 38.0022V28.8293ZM462.254 41.9334L460.879 39.3126H470.501L462.254 41.9334ZM454.969 46.2578L449.883 48.4855L452.219 43.637L454.419 44.2922L454.969 46.2578ZM466.79 43.637L469.127 48.4855L464.041 46.2578L464.728 44.1611L466.79 43.637ZM452.219 34.9883L449.883 30.1397L454.969 32.3674L454.281 34.333L452.219 34.9883ZM464.041 32.3674L469.127 30.1397L466.79 34.9883L464.591 34.333L464.041 32.3674Z" fill="#C7C7CC"/>
</g>
</g>
<defs>
<clipPath id="clip0">
<rect width="32.9901" height="31.4498" fill="white" transform="translate(443.01 23.5877)"/>
</clipPath>
</defs>
</svg>
